<?xml version="1.0" encoding="UTF-8"?><svg id="Livello_1" xmlns="http://www.w3.org/2000/svg" viewBox="0 0 443 230"><g id="Layer_1-2"><path d="m56.01,101.74v-20.15h2.88v20.15h-2.88Zm5.76-20.15h-2.88v-2.88h2.88v2.88Zm0,20.15v2.88h-2.88v-2.88h2.88Zm2.88-23.03h-2.88v-2.88h2.88v2.88Zm0,25.9v2.88h-2.88v-2.88h2.88Zm0-31.66h25.9v2.88h-25.9v-2.88Zm25.9,37.42h-25.9v-2.88h25.9v2.88Zm0-31.66v-2.88h2.88v2.88h-2.88Zm0,25.9h2.88v2.88h-2.88v-2.88Zm2.88-23.03v-2.88h2.88v2.88h-2.88Zm0,20.15h2.88v2.88h-2.88v-2.88Zm5.76-20.15v20.15h-2.88v-20.15s2.88,0,2.88,0Z"/><path d="m107.81,98.86v-23.03h2.88v23.03h-2.88Zm2.88,2.88v8.63h-2.88v-8.63h2.88Zm0-28.78h25.9v2.88h-25.9s0-2.88,0-2.88Zm25.9,28.78h-25.9v-2.88h25.9v2.88Zm0-23.03v-2.88h2.88v2.88h-2.88Zm0,17.27h2.88v2.88h-2.88v-2.88Zm2.88-14.39v-2.88h2.88v2.88h-2.88Zm0,11.51h2.88v2.88h-2.88v-2.88Zm5.76-11.51v11.51h-2.88v-11.51s2.88,0,2.88,0Z"/><path d="m153.86,90.22v-8.63h2.88v8.63h-2.88Zm2.88,2.88v8.63h-2.88v-8.63h2.88Zm2.88-11.51h-2.88v-2.88h2.88v2.88Zm-2.88,8.63h28.78v2.88h-28.78v-2.88Zm0,14.39v-2.88h2.88v2.88h-2.88Zm5.76-25.9h-2.88v-2.88h2.88v2.88Zm-2.88,28.78v-2.88h2.88v2.88h-2.88Zm2.88-34.54h28.78v2.88h-28.78v-2.88Zm0,34.54h28.78v2.88h-28.78v-2.88Z"/><path d="m205.67,75.83h-2.88v34.54h-2.88v-37.42h5.76v2.88Zm2.88,0v2.88h-2.88v-2.88h2.88Zm2.88,2.88v2.88h-2.88v-2.88h2.88Zm2.88,2.88v2.88h-2.88v-2.88h2.88Zm2.88,2.88v2.88h-2.88v-2.88h2.88Zm2.88,2.88v2.88h-2.88v-2.88h2.88Zm2.88,2.88v2.88h-2.88v-2.88h2.88Zm2.88,2.88v2.88h-2.88v-2.88h2.88Zm2.88,2.88v2.88h-2.88v-2.88h2.88Zm2.88,2.88v2.88h-2.88v-2.88h2.88Zm2.88,2.88v2.88h-2.88v-2.88h2.88Zm2.88,2.88v2.88h-2.88v-2.88h2.88Zm5.76-31.66v37.42h-5.76v-2.88h2.88v-34.54s2.88,0,2.88,0Z"/><path d="m104.93,125.39v8.63h-2.88v-8.63h2.88Zm0,25.9h-2.88v-5.76h2.88v5.76Zm0-28.78h2.88v2.88h-2.88v-2.88Zm0,14.39v-2.88h2.88v2.88h-2.88Zm2.88,14.39v2.88h-2.88v-2.88h2.88Zm25.9-28.78h-25.9v-2.88h25.9v2.88Zm-25.9,14.39h25.9v2.88h-25.9v-2.88Zm25.9,20.15h-25.9v-2.88h25.9v2.88Zm2.88-34.54v2.88h-2.88v-2.88h2.88Zm-2.88,20.15v-2.88h2.88v2.88h-2.88Zm0,8.63h2.88v2.88h-2.88v-2.88Zm5.76-25.9v5.76h-2.88v-5.76h2.88Zm0,17.27v8.63h-2.88v-8.63s2.88,0,2.88,0Z"/><path d="m148.11,148.36v-20.15h2.88v20.15h-2.88Zm5.76-20.15h-2.88v-2.88h2.88v2.88Zm0,20.15v2.88h-2.88v-2.88s2.88,0,2.88,0Zm2.88-23.03h-2.88v-2.88h2.88v2.88Zm0,25.9v2.88h-2.88v-2.88h2.88Zm0-31.66h25.9v2.88h-25.9v-2.88Zm25.9,37.42h-25.9v-2.88h25.9v2.88Zm0-31.66v-2.88h2.88v2.88h-2.88Zm0,25.9h2.88v2.88h-2.88v-2.88Zm2.88-23.03v-2.88h2.88v2.88h-2.88Zm0,20.15h2.88v2.88h-2.88v-2.88Zm5.76-20.15v20.15h-2.88v-20.15h2.88Z"/><path d="m199.91,148.36v-28.78h2.88v28.78h-2.88Zm5.76,0v2.88h-2.88v-2.88s2.88,0,2.88,0Zm2.88,2.88v2.88h-2.88v-2.88h2.88Zm25.9,5.76h-25.9v-2.88h25.9v2.88Zm0-5.76h2.88v2.88h-2.88v-2.88Zm2.88-2.88h2.88v2.88h-2.88v-2.88Zm5.76-28.78v28.78h-2.88v-28.78h2.88Z"/><path d="m251.72,145.48v-23.03h2.88v23.03h-2.88Zm2.88,2.88v8.63h-2.88v-8.63h2.88Zm0-28.78h25.9v2.88h-25.9v-2.88Zm28.78,31.66h-2.88v-2.88h-25.9v-2.88h28.78v5.76Zm-2.88-25.9v-2.88h2.88v2.88h-2.88Zm2.88,2.88v-2.88h2.88v2.88h-2.88Zm0,14.39h2.88v2.88h-2.88v-2.88Zm0,11.51v-2.88h2.88v2.88h-2.88Zm5.76-25.9v14.39h-2.88v-14.39h2.88Zm-2.88,28.78v-2.88h2.88v2.88h-2.88Z"/><path d="m300.65,128.26v20.15h-2.88v-20.15h2.88Zm0-2.88h2.88v2.88h-2.88v-2.88Zm0,25.9v-2.88h2.88v2.88h-2.88Zm2.88-28.78h2.88v2.88h-2.88v-2.88Zm0,31.66v-2.88h2.88v2.88h-2.88Zm28.78-31.66h-25.9v-2.88h25.9v2.88Zm-25.9,31.66h25.9v2.88h-25.9v-2.88Zm28.78-31.66v2.88h-2.88v-2.88h2.88Zm0,31.66h-2.88v-2.88h2.88v2.88Zm2.88-28.78v2.88h-2.88v-2.88h2.88Zm0,25.9h-2.88v-2.88h2.88v2.88Zm2.88-23.03v8.63h-2.88v-8.63h2.88Zm-2.88,20.15v-5.76h2.88v5.76h-2.88Z"/><path d="m349.58,136.85v-8.63h2.88v8.63h-2.88Zm2.88,2.88v8.63h-2.88v-8.63h2.88Zm2.88-11.51h-2.88v-2.88h2.88v2.88Zm-2.88,8.63h28.78v2.88h-28.78s0-2.88,0-2.88Zm0,14.39v-2.88h2.88v2.88h-2.88Zm5.76-25.9h-2.88v-2.88h2.88v2.88Zm-2.88,28.78v-2.88h2.88v2.88h-2.88Zm2.88-34.54h28.78v2.88h-28.78v-2.88Zm0,34.54h28.78v2.88h-28.78v-2.88Z"/></g></svg>