<?xml version="1.0" encoding="UTF-8"?><svg id="Layer_2" xmlns="http://www.w3.org/2000/svg" viewBox="0 0 524.55 745.86"><g id="emblem_1"><path d="m419.67,227.86H105.51c8.3-29.56,20.48-56.72,36.13-80.1,32.12-47.99,75.08-74.42,120.95-74.42s88.83,26.43,120.95,74.42c15.65,23.38,27.83,50.54,36.13,80.1Z"/><path d="m326.6,237.34v319.77c-3.82,2.29-7.71,4.37-11.65,6.23h-20.35V237.34h32Z" fill="#fff"/><path d="m358.6,237.34v294.4c-10.05,10.18-20.77,18.67-32,25.37V237.34h32Z"/><path d="m390.6,237.34v252.4c-2.27,3.82-4.62,7.54-7.05,11.18-7.73,11.55-16.08,21.84-24.95,30.82V237.34h32Z" fill="#fff"/><path d="m422.6,237.34v172.32c-7.11,29.2-17.89,56.31-32,80.08v-252.4h32Z"/><rect x="262.6" y="237.34" width="32" height="326"/><path d="m262.6,237.34v326h-52.35c-25.67-12.16-49.13-33.33-68.6-62.42-31.63-47.25-49.05-109.96-49.05-176.58,0-30.16,3.57-59.51,10.41-87h159.59Z" fill="#fff"/><path d="m422.59,239.02c-.13-.56-.27-1.12-.41-1.68-.79-3.19-1.63-6.35-2.51-9.48-8.3-29.56-20.48-56.72-36.13-80.1-32.12-47.99-75.08-74.42-120.95-74.42s-88.83,26.43-120.95,74.42c-15.65,23.38-27.83,50.54-36.13,80.1-.88,3.13-1.72,6.29-2.51,9.48-6.84,27.49-10.41,56.84-10.41,87,0,66.62,17.42,129.33,49.05,176.58,19.47,29.09,42.93,50.26,68.6,62.42,16.68,7.9,34.28,12,52.35,12s35.67-4.1,52.35-12c3.94-1.86,7.83-3.94,11.65-6.23,11.23-6.7,21.95-15.19,32-25.37,8.87-8.98,17.22-19.27,24.95-30.82,2.43-3.64,4.78-7.36,7.05-11.18,14.11-23.77,24.89-50.88,32-80.08,6.57-27,10-55.77,10-85.32s-3.43-58.32-10-85.32Zm-160-153.68c64.43,0,119.97,58.65,144.53,142.5H118.06c24.56-83.85,80.1-142.5,144.53-142.5Zm128,378.97c-9.02,18.83-19.82,35.6-32,49.74-9.83,11.4-20.56,21.1-32,28.8-10.15,6.83-20.86,12.09-32,15.57-10.34,3.22-21.04,4.92-32,4.92-87.12,0-158-107.21-158-239,0-30.68,3.85-60.03,10.84-87h294.32c6.99,26.97,10.84,56.32,10.84,87,0,52.24-11.13,100.6-30,139.97Z" fill="#fff" stroke="#000" stroke-miterlimit="10"/><path d="m171.49,295.32s6.2,2.33,6.98,1.55,3.95-.7,3.95-.7l2.25,1.47,3.1,1.55s.78,4.65,1.55,5.43l2.33,2.33s.78.78,0,3.1-2.33,8.53-2.33,8.53c0,0-1.55,3.88-.78,5.43s1.55,3.88,1.55,3.88l-3.88,11.63s0,1.55.78,1.55h3.99s1.35,1.08,1,4.03,1.98,5.27,1.98,5.27l10.85,12.4s6.2,1.55,6.98,3.1,5.43,5.43,5.43,5.43l5.43,2.33,1.55.78s3.1-3.1,3.88-3.1,3.88,2.33,3.88,2.33l6.2,4.65,4.65-.78s1.55.78,0,3.88c-1.55,3.1-4.65,10.85-4.65,10.85l-3.1,6.98v6.98l.78,8.53,3.88,3.88-.78,2.33-6.2,4.65s-2.33,2.33-1.55,7.75,3.1,7.75,3.1,7.75c0,0,2.33,3.88,2.33,6.2v7.75s-.78,3.88,3.1,5.43,3.88,2.33,3.88,2.33l.78,2.33,1.55,3.1s2.33,4.65-1.55,3.1-6.2-1.55-6.2-1.55l-4.65,3.1-4.65-4.65s-1.55-2.33-3.88-2.33-4.65-3.88-4.65-3.88l-3.1-6.98-10.08-10.85s3.88-1.55,1.55-3.88l-3.1-3.1s-3.1-.78-3.88,1.55c-3.1,1.55-3.88,2.33-3.88,2.33,0,0-.78,4.65-3.88-.78s-2.33-4.65-2.33-4.65l2.33-2.33-1.55-2.33,2.33-5.43s8.53,1.55,9.3.78,6.2-1.55,6.2-1.55c0,0,2.33,0,1.55-1.55s-3.1-6.98-3.1-6.98c0,0-4.65-3.1-5.43-6.2s0-3.88,0-3.88c0,0,3.88-1.55,0-4.65s-5.43-.78-5.43-.78c0,0-2.33.78-3.88-4.65-6.2-4.65-9.3-7.75-9.3-7.75,0,0,1.55-9.3-5.43-9.3-6.98,0-6.98,4.65-15.5-3.1s-12.4-10.85-12.4-10.85c0,0-3.1,1.55-3.88,3.1s-2.33-.78-2.33-.78l-3.88-3.1,3.88-1.55s-1.55-6.2-7.75-5.43-7.75,2.33-7.75,2.33l-4.65-2.33-3.88-1.55,2.33-3.1,6.2,2.33s3.88-3.1-3.1-8.53c6.98-4.65,10.08-4.65,10.08-4.65,0,0,4.65-8.53,15.5-5.43s13.18-7.75,13.18-7.75c0,0,4.65-16.28,6.2-33.33Z"/><path d="m158.8,201.36v-9.17c0-1.36,0-2.69,0-4.05,0-1.36,0-2.76,0-4.26,0-1.51,0-3.12,0-4.91.35-1.11.62-1.93.9-2.74s.56-1.63.96-2.69c.08,1.68.16,3.23.23,4.68.07,1.45.14,2.81.2,4.12.06,1.31.13,2.57.19,3.84.06,1.26.12,2.53.19,3.84.06,1.31.13,2.67.2,4.12.07,1.45.15,2.99.23,4.68.1,2.13.24,3.84.49,5.22.25,1.37.62,2.41,1.18,3.17.57.77,1.34,1.26,2.38,1.53s2.37.31,4.03.13c1.32-.14,2.41-.38,3.28-.79.87-.41,1.53-.99,2.01-1.8.48-.81.77-1.85.91-3.17.14-1.32.13-2.92,0-4.83-.13-1.91-.38-4.14-.72-6.72-.25-1.91-.48-3.71-.7-5.41-.22-1.7-.43-3.32-.63-4.88s-.4-3.05-.58-4.52c-.19-1.47-.38-2.9-.56-4.34-.19-1.44-.37-2.87-.56-4.34s-.38-2.96-.58-4.52-.41-3.17-.63-4.88c-.22-1.7-.45-3.5-.7-5.41.56-.9.98-1.56,1.41-2.22.43-.66.87-1.31,1.46-2.17.25,1.88.49,3.65.72,5.35.23,1.69.45,3.31.66,4.86.21,1.55.41,3.05.61,4.51.2,1.46.39,2.89.58,4.3.19,1.42.38,2.82.57,4.23.19,1.42.38,2.84.58,4.3.2,1.46.4,2.96.61,4.51.21,1.55.43,3.17.66,4.86s.47,3.47.72,5.35c.34,2.54.6,4.85.75,6.94.15,2.09.18,3.96.08,5.6-.1,1.64-.35,3.05-.75,4.23s-.98,2.14-1.74,2.88c-.76.74-1.71,1.26-2.87,1.6s-2.53.48-4.13.48c-2.4,0-4.35-.31-5.92-.83s-2.73-1.24-3.58-2.17-1.38-2.05-1.7-3.45c-.32-1.39-.42-3.06-.42-5.07Z" fill="#fff"/><path d="m179.22,141.16c.7-.84,1.24-1.46,1.78-2.08.54-.61,1.09-1.22,1.83-2.02.69,1.41,1.35,2.8,2,4.18.65,1.38,1.28,2.74,1.89,4.09.62,1.35,1.22,2.68,1.8,4.01s1.17,2.64,1.73,3.95c.57,1.31,1.13,2.62,1.68,3.94.56,1.32,1.11,2.63,1.66,3.97.55,1.33,1.1,2.68,1.65,4.05.55,1.37,1.11,2.77,1.67,4.2.56,1.43,1.14,2.9,1.72,4.41.58,1.51,1.18,3.07,1.79,4.7s1.24,3.31,1.88,5.07,1.31,3.6,2,5.52c.69,1.93,1.4,3.95,2.14,6.08-.23-1.91-.45-3.75-.66-5.54s-.42-3.52-.62-5.21c-.2-1.69-.4-3.33-.59-4.93s-.38-3.17-.56-4.7c-.18-1.53-.36-3.04-.54-4.52-.18-1.48-.35-2.95-.52-4.4-.17-1.45-.34-2.89-.51-4.32s-.34-2.86-.51-4.29c-.17-1.43-.34-2.87-.51-4.32s-.35-2.91-.52-4.4c-.18-1.48-.36-2.99-.54-4.52s-.37-3.1-.56-4.7-.39-3.24-.59-4.93-.41-3.42-.62-5.21c-.21-1.79-.43-3.63-.66-5.54,1.57-1.14,2.37-1.69,3.98-2.75.22,1.92.43,3.78.63,5.6s.41,3.6.6,5.33.39,3.43.58,5.09.37,3.29.55,4.89c.18,1.6.36,3.17.53,4.71.17,1.54.35,3.07.52,4.57.17,1.5.34,2.99.5,4.46.17,1.47.33,2.93.49,4.38.16,1.45.33,2.89.49,4.33s.32,2.87.49,4.31c.16,1.44.33,2.88.49,4.33.16,1.45.33,2.91.49,4.38.17,1.47.33,2.95.5,4.46s.34,3.02.52,4.57c.17,1.54.35,3.11.53,4.71.18,1.6.36,3.22.55,4.89.19,1.66.38,3.36.58,5.09s.4,3.51.6,5.33c.21,1.82.42,3.69.63,5.6-1.61.01-2.42.02-4.03.03-.69-2.06-1.35-4.02-1.99-5.9s-1.27-3.68-1.87-5.41-1.19-3.39-1.77-4.99c-.57-1.6-1.14-3.15-1.69-4.65s-1.09-2.95-1.62-4.37-1.06-2.8-1.57-4.16-1.04-2.69-1.55-4.01-1.03-2.62-1.54-3.92-1.03-2.58-1.56-3.87-1.05-2.57-1.59-3.86-1.08-2.59-1.64-3.9-1.12-2.63-1.71-3.96c-.58-1.33-1.18-2.68-1.79-4.05s-1.24-2.75-1.88-4.14c.26,1.89.51,3.7.75,5.45.24,1.75.47,3.44.7,5.09.22,1.64.44,3.23.65,4.78.21,1.55.42,3.06.62,4.55.2,1.48.4,2.94.6,4.38.2,1.44.39,2.86.59,4.28.19,1.42.39,2.83.58,4.25.19,1.42.39,2.84.59,4.28.2,1.44.4,2.9.6,4.38.2,1.48.41,3,.62,4.55.21,1.55.43,3.14.65,4.78s.46,3.33.7,5.09c.24,1.75.49,3.57.75,5.45-1.51.01-2.27.02-3.78.04-.26-1.89-.51-3.72-.76-5.5-.24-1.78-.48-3.5-.71-5.17-.23-1.67-.46-3.3-.67-4.89s-.43-3.14-.64-4.67-.42-3.02-.62-4.49c-.2-1.47-.4-2.92-.6-4.36-.2-1.44-.4-2.87-.59-4.29-.2-1.42-.39-2.84-.59-4.26-.2-1.42-.39-2.85-.59-4.29s-.4-2.89-.6-4.36c-.2-1.47-.41-2.97-.62-4.49-.21-1.52-.42-3.08-.64-4.67-.22-1.59-.44-3.22-.67-4.89-.23-1.67-.47-3.4-.71-5.17-.24-1.78-.5-3.61-.76-5.5Z" fill="#fff"/><path d="m214.06,164.51c-.34-3.35-.64-6.48-.9-9.42-.26-2.94-.49-5.68-.67-8.24s-.32-4.94-.42-7.16c-.1-2.22-.15-4.27-.15-6.18s.04-3.66.14-5.29c.1-1.62.24-3.12.44-4.49.2-1.37.45-2.63.76-3.78.31-1.15.68-2.19,1.11-3.14.43-.95.92-1.81,1.47-2.58.55-.77,1.17-1.47,1.85-2.09.68-.62,1.43-1.17,2.25-1.66.82-.49,1.71-.91,2.67-1.28.96-.37,1.87-.63,2.73-.79s1.66-.19,2.42-.11c.75.08,1.46.29,2.12.63.66.34,1.27.82,1.84,1.44.57.62,1.1,1.39,1.58,2.31s.94,2,1.35,3.25c.41,1.25.79,2.66,1.14,4.26.35,1.6.67,3.37.97,5.34.3,1.97.57,4.13.82,6.5.25,2.37.48,4.94.7,7.73s.42,5.8.62,9.04c.2,3.24.38,6.71.57,10.42.18,3.61.33,7,.46,10.17s.22,6.12.28,8.88c.06,2.75.1,5.3.1,7.66,0,2.36-.03,4.53-.1,6.52-.07,1.99-.17,3.8-.31,5.45-.14,1.65-.32,3.13-.54,4.46-.22,1.33-.47,2.51-.77,3.55-.3,1.04-.64,1.94-1.03,2.72-.39.78-.82,1.43-1.3,1.97-.48.54-1.01.97-1.59,1.3-.58.33-1.21.57-1.9.72-.69.15-1.43.22-2.23.22-.87,0-1.69-.08-2.45-.26-.77-.18-1.48-.45-2.15-.83-.67-.38-1.3-.87-1.89-1.48s-1.15-1.34-1.67-2.21c-.52-.87-1.01-1.87-1.48-3.03-.47-1.16-.91-2.46-1.33-3.93s-.82-3.11-1.21-4.93c-.39-1.82-.76-3.82-1.12-6.03s-.72-4.6-1.07-7.22c-.35-2.62-.7-5.45-1.05-8.52s-.7-6.37-1.06-9.93Zm21.02-4.64c-.23-3.93-.45-7.52-.67-10.8-.22-3.28-.44-6.25-.66-8.93-.22-2.68-.45-5.08-.7-7.22-.24-2.14-.5-4.02-.78-5.67s-.58-3.06-.91-4.26-.69-2.19-1.09-3-.84-1.43-1.32-1.89c-.48-.46-1.01-.76-1.58-.93-.58-.17-1.2-.2-1.88-.11s-1.42.28-2.23.56c-.8.29-1.53.61-2.18,1-.65.39-1.23.84-1.74,1.39-.51.54-.95,1.17-1.33,1.91-.38.74-.69,1.6-.94,2.59-.25.99-.44,2.12-.58,3.42-.13,1.3-.21,2.76-.24,4.41s0,3.5.08,5.58c.08,2.07.21,4.36.38,6.91.17,2.55.39,5.34.65,8.42.26,3.08.56,6.44.9,10.1.33,3.56.64,6.82.94,9.8s.59,5.69.88,8.16c.29,2.46.57,4.67.86,6.66.29,1.99.58,3.75.88,5.3.3,1.56.61,2.92.94,4.1s.67,2.18,1.04,3.03c.37.85.76,1.54,1.19,2.1.43.56.88.99,1.38,1.31.5.32,1.04.53,1.62.66.58.13,1.22.16,1.9.14.69-.02,1.31-.11,1.87-.28.56-.17,1.07-.43,1.51-.8.45-.37.84-.85,1.17-1.47s.62-1.38.86-2.3.43-2.01.57-3.29c.14-1.28.24-2.75.3-4.43.06-1.69.07-3.59.05-5.73s-.08-4.52-.18-7.17c-.1-2.65-.23-5.56-.39-8.76-.16-3.2-.36-6.69-.58-10.5Z" fill="#fff"/><path d="m239.92,105.4c1.91-.39,2.87-.56,4.8-.87.29,1.92.57,3.79.84,5.61.27,1.83.53,3.61.79,5.35.25,1.74.5,3.45.74,5.12.24,1.67.47,3.31.7,4.93.23,1.61.45,3.2.66,4.76.22,1.56.43,3.1.63,4.62.21,1.52.41,3.02.61,4.52.2,1.49.4,2.97.59,4.44.19,1.47.39,2.94.58,4.4.19,1.46.38,2.92.57,4.39.19,1.47.37,2.93.56,4.41.19,1.48.37,2.96.56,4.47.19,1.5.37,3.02.56,4.55.19,1.54.37,3.09.56,4.67.19,1.58.38,3.19.57,4.82.19,1.64.39,3.3.58,5.01.2,1.7.39,3.44.59,5.23s.4,3.61.61,5.48c.21,1.87.41,3.79.63,5.76.13-1.97.27-3.9.4-5.78s.26-3.71.39-5.5c.13-1.79.26-3.54.39-5.26s.25-3.39.38-5.04.25-3.27.38-4.86c.12-1.59.25-3.17.37-4.72s.25-3.08.37-4.6c.12-1.52.25-3.02.37-4.52s.25-2.99.38-4.47c.13-1.49.25-2.97.38-4.45s.26-2.97.39-4.47.27-3,.41-4.52c.14-1.52.28-3.05.42-4.6.14-1.55.29-3.12.44-4.72.15-1.59.3-3.21.46-4.86.16-1.65.32-3.33.49-5.04s.34-3.46.52-5.25c.18-1.79.36-3.62.56-5.5s.39-3.8.6-5.77c1.88.03,2.81.07,4.68.18.17,1.99.34,3.92.5,5.8.16,1.89.31,3.73.46,5.52s.29,3.55.43,5.27.27,3.4.4,5.06.26,3.28.38,4.87c.12,1.6.24,3.17.36,4.72.12,1.55.23,3.09.34,4.61.11,1.52.22,3.03.33,4.52.11,1.5.21,2.99.32,4.47.1,1.49.21,2.97.31,4.45.1,1.48.2,2.97.3,4.47.1,1.49.2,3,.3,4.51s.2,3.04.29,4.59c.1,1.55.19,3.11.29,4.7s.19,3.2.29,4.85c.1,1.64.2,3.31.29,5.02.1,1.71.2,3.45.3,5.23.1,1.78.2,3.6.3,5.47.1,1.87.2,3.78.3,5.74.24-1.95.48-3.85.72-5.7.24-1.85.47-3.65.7-5.42.23-1.76.46-3.48.68-5.16.22-1.68.44-3.33.66-4.94s.43-3.2.65-4.76c.21-1.56.43-3.09.64-4.6s.42-3.01.63-4.48c.21-1.48.42-2.94.63-4.39.21-1.45.42-2.9.63-4.34s.42-2.88.63-4.31c.21-1.44.43-2.88.64-4.32.22-1.44.44-2.9.66-4.36.22-1.46.45-2.94.68-4.43.23-1.49.47-3,.71-4.53.24-1.53.49-3.08.74-4.66.25-1.58.51-3.18.77-4.82.26-1.64.54-3.3.82-5.01.28-1.7.57-3.44.87-5.22s.6-3.6.92-5.47c1.92.46,2.88.72,4.78,1.26-.34,1.83-.67,3.63-.99,5.38s-.63,3.48-.94,5.18c-.3,1.69-.6,3.36-.89,4.99s-.57,3.24-.85,4.83c-.28,1.58-.55,3.14-.81,4.68-.26,1.54-.52,3.06-.78,4.56-.25,1.5-.5,2.99-.75,4.46-.25,1.47-.49,2.93-.73,4.38-.24,1.45-.47,2.89-.71,4.32-.23,1.43-.46,2.86-.69,4.28-.23,1.42-.45,2.85-.68,4.27-.22,1.42-.45,2.85-.67,4.28-.22,1.43-.44,2.87-.67,4.32-.22,1.45-.44,2.9-.67,4.37-.22,1.47-.44,2.95-.67,4.45-.22,1.5-.45,3.02-.67,4.56s-.45,3.1-.68,4.69c-.23,1.59-.46,3.2-.69,4.84-.23,1.64-.47,3.32-.71,5.02-.24,1.71-.48,3.45-.72,5.23-.24,1.78-.49,3.59-.74,5.45s-.5,3.76-.76,5.71c-1.73,0-2.6,0-4.33,0-.11-1.95-.21-3.84-.32-5.69-.11-1.85-.21-3.65-.32-5.41-.1-1.76-.21-3.48-.31-5.16-.1-1.68-.21-3.33-.31-4.95-.1-1.62-.2-3.21-.31-4.77-.1-1.57-.2-3.11-.3-4.63-.1-1.52-.2-3.03-.31-4.53-.1-1.49-.21-2.98-.31-4.46-.1-1.48-.21-2.95-.31-4.42-.11-1.47-.21-2.94-.32-4.42-.11-1.48-.22-2.96-.33-4.46-.11-1.5-.23-3.01-.35-4.54-.12-1.53-.24-3.08-.36-4.65s-.25-3.17-.38-4.79-.27-3.28-.41-4.98c-.14-1.69-.28-3.42-.43-5.2-.15-1.77-.31-3.59-.47-5.45-.16-1.86-.33-3.78-.51-5.74-.21,1.95-.41,3.86-.61,5.71s-.38,3.66-.57,5.42-.36,3.49-.53,5.17c-.17,1.69-.34,3.34-.5,4.96s-.32,3.21-.47,4.78c-.15,1.57-.3,3.11-.45,4.64-.15,1.53-.29,3.03-.43,4.53-.14,1.5-.28,2.98-.41,4.46-.14,1.48-.27,2.95-.4,4.42-.13,1.47-.26,2.94-.39,4.42-.13,1.48-.26,2.96-.39,4.46s-.26,3.01-.39,4.53c-.13,1.53-.26,3.07-.39,4.64-.13,1.57-.26,3.16-.39,4.79-.13,1.62-.26,3.28-.4,4.97-.13,1.69-.27,3.42-.4,5.19-.14,1.77-.27,3.58-.41,5.44s-.28,3.77-.42,5.73c-1.71,0-2.57,0-4.28,0-.22-1.97-.44-3.89-.66-5.77-.22-1.88-.43-3.72-.65-5.52-.21-1.8-.42-3.56-.63-5.29-.21-1.73-.42-3.43-.62-5.09-.21-1.67-.41-3.3-.61-4.92-.2-1.61-.4-3.2-.61-4.76s-.4-3.11-.6-4.64c-.2-1.53-.4-3.04-.6-4.53-.2-1.5-.4-2.98-.6-4.45s-.4-2.94-.6-4.4c-.2-1.46-.4-2.91-.6-4.37-.2-1.45-.41-2.91-.61-4.36s-.41-2.91-.62-4.38-.42-2.93-.64-4.42c-.22-1.48-.44-2.97-.66-4.48-.22-1.51-.45-3.03-.68-4.56-.23-1.54-.47-3.1-.71-4.67-.24-1.58-.49-3.18-.74-4.81-.25-1.63-.51-3.28-.78-4.96s-.54-3.39-.82-5.13c-.28-1.74-.57-3.52-.86-5.33-.3-1.81-.6-3.66-.91-5.55Z" fill="#fff"/><path d="m299.36,109.21c.98.34,1.72.6,2.45.87s1.46.55,2.43.93c.28,2.09.54,4.12.79,6.08s.49,3.87.73,5.72c.23,1.85.45,3.65.67,5.4.21,1.75.42,3.46.62,5.13s.39,3.3.58,4.91.37,3.18.55,4.73c.18,1.55.35,3.08.52,4.59.17,1.51.34,3.01.5,4.49.16,1.49.33,2.96.49,4.44.16,1.47.32,2.95.48,4.42s.32,2.96.47,4.45c.16,1.49.31,2.99.47,4.51.16,1.52.31,3.05.47,4.6.16,1.55.32,3.13.48,4.73.16,1.6.32,3.23.49,4.89s.33,3.35.5,5.08c.17,1.73.34,3.49.52,5.29.22-1.99.43-3.91.64-5.77s.41-3.67.6-5.43c.19-1.76.38-3.47.57-5.14.18-1.67.36-3.3.54-4.9.18-1.6.35-3.17.52-4.71.17-1.55.34-3.07.51-4.58.17-1.51.33-3.01.5-4.5.16-1.49.33-2.98.49-4.47.16-1.49.33-2.99.5-4.5.17-1.51.34-3.03.51-4.58.17-1.55.34-3.11.52-4.71s.36-3.23.54-4.9c.18-1.67.37-3.38.57-5.14.19-1.76.39-3.56.6-5.43.21-1.86.42-3.79.64-5.77,1.63,1.03,2.44,1.56,4.03,2.67-.23,1.99-.46,3.92-.68,5.8-.22,1.88-.43,3.71-.64,5.5-.21,1.79-.41,3.54-.61,5.25s-.4,3.38-.59,5.03c-.19,1.64-.38,3.25-.57,4.84s-.37,3.15-.55,4.7c-.18,1.54-.36,3.07-.54,4.59-.18,1.51-.35,3.02-.53,4.51-.17,1.5-.35,2.99-.52,4.47s-.35,2.98-.52,4.47c-.17,1.5-.35,3-.53,4.51-.18,1.51-.36,3.04-.54,4.59-.18,1.54-.36,3.11-.55,4.7-.19,1.59-.37,3.2-.57,4.84s-.39,3.32-.59,5.03c-.2,1.71-.4,3.46-.61,5.25-.21,1.79-.42,3.62-.64,5.5s-.45,3.81-.68,5.8c-1.61-.01-2.42-.02-4.03-.03-.17-1.78-.33-3.52-.49-5.23s-.32-3.38-.48-5.03c-.16-1.64-.31-3.26-.47-4.84-.15-1.59-.31-3.15-.46-4.69-.15-1.54-.3-3.06-.45-4.56-.15-1.5-.3-2.99-.45-4.47-.15-1.48-.3-2.95-.45-4.41-.15-1.47-.3-2.93-.45-4.39-.15-1.46-.31-2.93-.46-4.41-.16-1.48-.32-2.96-.48-4.46s-.33-3.02-.5-4.56-.34-3.11-.52-4.7c-.18-1.59-.36-3.22-.55-4.88-.19-1.66-.39-3.36-.59-5.11s-.42-3.54-.64-5.38c-.22-1.84-.45-3.74-.69-5.7-.24-1.96-.49-3.98-.76-6.06-.15,1.95-.3,3.84-.45,5.68-.15,1.84-.29,3.63-.42,5.38s-.27,3.45-.4,5.11-.26,3.29-.39,4.89c-.13,1.6-.25,3.17-.37,4.71-.12,1.54-.24,3.06-.36,4.57s-.24,2.99-.35,4.47c-.12,1.48-.23,2.94-.35,4.41-.12,1.46-.23,2.92-.35,4.39-.12,1.46-.23,2.93-.35,4.41-.12,1.48-.23,2.96-.35,4.47s-.24,3.02-.36,4.57c-.12,1.54-.25,3.11-.37,4.71-.13,1.6-.25,3.23-.39,4.89-.13,1.67-.27,3.37-.4,5.11-.14,1.75-.28,3.54-.42,5.38-.15,1.84-.29,3.73-.45,5.68-1.52,0-2.28-.01-3.8-.02.14-1.95.27-3.86.4-5.73.13-1.87.26-3.69.39-5.48.13-1.79.25-3.54.37-5.25.12-1.72.24-3.4.36-5.05.12-1.65.23-3.28.34-4.88.11-1.6.22-3.18.33-4.73.11-1.56.22-3.09.32-4.61.11-1.52.21-3.03.32-4.52.11-1.49.21-2.98.31-4.45.1-1.48.21-2.95.31-4.41s.21-2.93.31-4.4.21-2.94.31-4.41c.1-1.48.21-2.96.31-4.45.11-1.49.21-3,.32-4.52.11-1.52.22-3.06.32-4.61.11-1.56.22-3.13.33-4.73.11-1.6.23-3.22.34-4.88.12-1.65.23-3.34.36-5.05.12-1.72.24-3.46.37-5.25.13-1.79.25-3.61.39-5.48.13-1.87.27-3.77.4-5.73Z" fill="#fff"/><path d="m333.14,128.21c1.5,1.26,2.79,2.41,3.97,3.5,1.18,1.09,2.24,2.13,3.29,3.2s2.08,2.15,3.17,3.37c1.09,1.21,2.24,2.55,3.52,4.13-.16,1.14-.27,1.99-.39,2.84-.12.85-.23,1.7-.39,2.84-1.29-1.45-2.4-2.61-3.45-3.68-1.05-1.07-2.04-2.03-3.13-3.05-1.09-1.01-2.27-2.08-3.72-3.31-.25,1.9-.48,3.65-.7,5.29-.22,1.64-.42,3.17-.61,4.65s-.38,2.91-.57,4.33c-.19,1.43-.38,2.85-.57,4.33-.2,1.48-.4,3.01-.61,4.65-.22,1.64-.45,3.38-.7,5.29,1.47.76,2.55,1.35,3.63,1.96,1.08.6,2.15,1.22,3.55,2.07-.16,1.2-.29,2.1-.41,2.99-.12.9-.25,1.8-.41,2.99-1.42-.73-2.49-1.26-3.58-1.77-1.08-.52-2.18-1.03-3.65-1.68-.24,1.85-.47,3.56-.68,5.19-.21,1.62-.41,3.15-.61,4.62s-.38,2.89-.56,4.28c-.18,1.4-.37,2.77-.55,4.17-.18,1.4-.37,2.81-.56,4.28-.19,1.47-.4,3-.61,4.62-.21,1.62-.44,3.34-.68,5.19,1.71.14,3.13.26,4.45.37,1.32.12,2.55.23,3.87.35,1.32.12,2.73.26,4.42.42-.15,1.11-.27,1.94-.38,2.77-.11.83-.23,1.66-.38,2.77-1.66-.02-3.12-.03-4.47-.05-1.35-.01-2.6-.03-3.84-.04s-2.49-.02-3.85-.04c-1.35-.01-2.81-.02-4.47-.04.25-1.97.49-3.89.73-5.75.24-1.86.47-3.67.69-5.44.23-1.77.44-3.49.66-5.18s.42-3.33.63-4.95c.21-1.62.41-3.2.61-4.77.2-1.56.39-3.1.59-4.62s.39-3.03.58-4.52c.19-1.49.38-2.98.57-4.46s.38-2.96.57-4.44.38-2.97.57-4.46.38-3,.58-4.52c.19-1.52.39-3.06.59-4.62.2-1.56.4-3.15.61-4.77.21-1.62.42-3.27.63-4.95.21-1.69.43-3.41.66-5.18s.46-3.58.69-5.44c.24-1.86.48-3.78.73-5.75Z" fill="#fff"/><path d="m352.43,149.61c.85,1.26,1.58,2.39,2.24,3.45s1.26,2.06,1.84,3.07,1.15,2.03,1.75,3.16c.6,1.13,1.23,2.36,1.93,3.79.86,1.78,1.58,3.5,2.18,5.15.61,1.65,1.1,3.24,1.52,4.77.42,1.53.76,3,1.05,4.43.29,1.44.52,2.84.71,4.24.19,1.4.35,2.81.47,4.27.12,1.46.21,2.98.27,4.61.06,1.63.09,3.37.09,5.29,0,2.62-.06,4.8-.24,6.64-.18,1.84-.48,3.34-.96,4.58-.48,1.24-1.14,2.23-2.03,3.02-.89.78-1.99,1.36-3.36,1.75-1.36.38-2.98.57-4.87.55-1.47-.02-2.69-.03-3.83-.05-1.14-.01-2.2-.03-3.34-.04-1.14-.01-2.36-.03-3.83-.04.26-1.93.51-3.78.75-5.57s.47-3.52.7-5.19c.22-1.68.44-3.3.66-4.89.21-1.59.42-3.13.62-4.65.2-1.52.4-3,.6-4.48s.39-2.92.59-4.37c.19-1.45.39-2.89.58-4.34.19-1.45.39-2.9.59-4.37s.4-2.96.6-4.48c.2-1.52.41-3.06.62-4.65.21-1.59.43-3.21.66-4.89.22-1.68.46-3.4.7-5.19.24-1.79.49-3.64.75-5.57Zm2.98,58.67c1.31.16,2.4.18,3.31,0,.91-.17,1.65-.54,2.24-1.15.59-.61,1.04-1.46,1.39-2.62.35-1.16.6-2.64.8-4.52.2-1.88.34-4.15.48-6.92.12-2.38.2-4.44.24-6.26.04-1.82.04-3.42-.02-4.86-.05-1.44-.16-2.74-.33-3.98-.17-1.23-.4-2.4-.71-3.56s-.71-2.33-1.21-3.54c-.5-1.21-1.12-2.48-1.87-3.85-.95-1.72-1.7-2.97-2.46-4.21-.76-1.24-1.54-2.46-2.62-4.04-.25,1.95-.49,3.8-.71,5.57-.23,1.77-.44,3.47-.65,5.1-.21,1.64-.41,3.21-.61,4.75-.2,1.54-.39,3.04-.58,4.52s-.38,2.94-.56,4.4-.37,2.92-.56,4.4-.38,2.98-.58,4.52-.4,3.12-.61,4.75c-.21,1.64-.43,3.33-.65,5.1-.23,1.77-.46,3.62-.71,5.57,1.4.16,2.45.28,3.5.4,1.05.12,2.09.25,3.48.42Z" fill="#fff"/><path d="m261.09,42.24c.59-.43,1.55-.43,2.14,0l15.83,11.56c.59.43.89.22.66-.48l-6.1-18.63c-.23-.7.07-1.61.66-2.04l15.88-11.49c.59-.43.48-.78-.25-.77l-19.6.04c-.73,0-1.51-.56-1.73-1.26l-6.02-18.66c-.22-.7-.59-.69-.81,0l-6.02,18.66c-.22.7-1,1.26-1.73,1.26l-19.6-.04c-.73,0-.84.35-.25.77l15.88,11.49c.59.43.89,1.34.66,2.04l-6.1,18.63c-.23.7.07.91.66.48l15.83-11.56Z" fill="#fff"/><text transform="translate(71.29 673.22)" fill="#fff" font-family="EdwardianScriptITC, &apos;Edwardian Script ITC&apos;" font-size="72"><tspan x="0" y="0">Unowned Project</tspan></text><text transform="translate(177.19 720.6)" fill="#fff" font-family="Helvetica, Helvetica" font-size="21"><tspan x="0" y="0">FOOTBAL</tspan><tspan x="98.02" y="0" letter-spacing="-.04em">L</tspan><tspan x="108.93" y="0" xml:space="preserve"> CLUB</tspan></text></g></svg>