<?xml version="1.0" encoding="UTF-8"?><svg id="Livello_1" xmlns="http://www.w3.org/2000/svg" width="443" height="230" viewBox="0 0 443 230"><path d="m185.3,195.8c-5.03,6.9-7.55,11.36-7.55,13.37,0,.49.16.9.48,1.21.32.32.74.47,1.24.47.86,0,1.71-.46,2.54-1.38.07-.07.13-.11.16-.11.04,0,.07.03.07.09,0,.08-.13.23-.38.44-.86.76-1.65,1.14-2.39,1.14-.69,0-1.26-.27-1.72-.81-.46-.54-.69-1.21-.69-2.02,0-1.39.71-3.22,2.14-5.49-.08.11-.19.26-.34.46l-.52.71c-1.31,1.83-2.57,3.27-3.78,4.31s-2.21,1.56-3.01,1.56c-.52,0-.94-.19-1.26-.57-.32-.38-.48-.88-.48-1.51,0-.66.18-1.31.53-1.96.35-.65,1.14-1.78,2.37-3.39,1.29-1.68,2.1-2.84,2.45-3.5.35-.66.52-1.35.52-2.09,0-.69-.26-1.23-.77-1.64-.51-.41-1.21-.61-2.09-.61-2.22,0-4.36,1.01-6.41,3.03s-3.08,4.12-3.08,6.3c0,.82.23,1.48.69,1.97.46.5,1.07.75,1.83.75,1.44,0,2.83-.82,4.17-2.47,1.39-1.73,2.09-3.3,2.09-4.72,0-1.2-.51-1.81-1.53-1.81-.25,0-.49.06-.72.17-.22.12-.34.24-.34.38,0,.06.03.09.1.09.04,0,.11-.03.2-.07.04-.01.09-.02.15-.02.38,0,.56.18.56.53,0,.23-.09.44-.26.61s-.38.26-.61.26c-.45,0-.68-.24-.68-.72,0-.39.16-.73.48-1.02.32-.29.71-.43,1.15-.43.51,0,.92.18,1.23.54s.46.85.46,1.47c0,1.42-.68,3-2.04,4.74-1.38,1.77-2.85,2.65-4.4,2.65-.92,0-1.65-.31-2.21-.94s-.83-1.46-.83-2.5c0-2.38,1.25-4.55,3.74-6.51.97-.76,2.02-1.37,3.15-1.83s2.15-.69,3.06-.69c1.1,0,1.96.29,2.57.89.61.59.91,1.41.91,2.47,0,.9-.22,1.75-.66,2.56-.44.81-1.54,2.38-3.3,4.71-.77,1.02-1.28,1.74-1.52,2.18-.24.44-.36.85-.36,1.25,0,.36.11.65.33.88.22.23.5.35.83.35,1.09,0,2.59-1.1,4.51-3.29,1.92-2.19,4.42-5.66,7.5-10.42.38.03.6.04.64.04.28,0,.62-.04,1.04-.11Z" fill="#e2b75d"/><path d="m190.41,205.85c0,.15-.53.86-1.58,2.11-.86,1.03-1.54,1.55-2.04,1.55-.33,0-.6-.13-.82-.38s-.33-.57-.33-.94c0-.33.07-.63.2-.91.13-.28.48-.83,1.05-1.66.59-.87.88-1.43.88-1.66,0-.3-.16-.45-.47-.45-1.06,0-2.69,1.97-4.9,5.9-.36-.03-.57-.04-.64-.04-.25,0-.49.01-.72.04l1.7-2.69c.96-1.54,1.45-2.5,1.45-2.88,0-.22-.09-.33-.27-.33-.37,0-1.1.78-2.19,2.34-.07.09-.12.15-.15.15-.04,0-.06-.02-.07-.07,0-.04.02-.07.04-.09l.21-.27c1.11-1.49,1.86-2.24,2.24-2.24.25,0,.46.11.63.34.17.22.26.49.26.81,0,.46-.27,1.11-.82,1.94.86-1.18,1.51-1.99,1.97-2.43.46-.44.89-.65,1.28-.65.32,0,.59.13.81.39s.33.58.33.97c0,.49-.33,1.23-1,2.23s-1.02,1.68-1.02,1.96c0,.3.15.45.45.45.65,0,1.76-1.15,3.34-3.45.04-.07.07-.11.11-.11.04,0,.07.02.07.07Z" fill="#e2b75d"/><path d="m196.85,205.83c0,.12-.21.39-.64.81-.64.64-1.23.95-1.76.95-.23,0-.42-.04-.6-.13-.96,1.36-1.86,2.03-2.7,2.03-.44,0-.81-.18-1.12-.54-.31-.36-.46-.79-.46-1.29,0-1.12.73-2.19,2.2-3.23,1.03-.73,1.88-1.1,2.55-1.1.62,0,.94.33.94,1,0,.83-.44,1.84-1.32,3.01.15.09.31.13.49.13.33,0,.71-.15,1.14-.46.44-.3.79-.67,1.07-1.1.08-.1.14-.15.17-.15.03,0,.04.01.04.04Zm-1.77-1.46c0-.59-.26-.88-.79-.88-.66,0-1.47.63-2.42,1.89-.95,1.26-1.43,2.32-1.43,3.19,0,.5.24.75.72.75.78,0,1.64-.65,2.57-1.94-.21-.23-.32-.47-.32-.72,0-.36.14-.72.42-1.1s.56-.57.83-.57c.12,0,.2.07.24.22.12-.25.17-.54.17-.85Z" fill="#e2b75d"/><path d="m206.32,205.82c0,.08-.23.36-.7.84-.62.66-1.17.99-1.65.99-.32,0-.59-.17-.81-.52-.65.89-1.17,1.51-1.58,1.85-.41.34-.82.52-1.23.52-.37,0-.68-.13-.92-.38-.25-.25-.37-.56-.37-.92,0-.3.1-.67.29-1.1-1.09,1.6-1.94,2.39-2.57,2.39-.31,0-.57-.13-.79-.38-.21-.25-.32-.56-.32-.91,0-.41.21-.99.64-1.72l1.81-3.06c.29.05.5.08.64.08.12,0,.36-.03.72-.08l-2.47,4.04c-.39.63-.59,1.09-.59,1.38,0,.33.15.49.45.49.33,0,.81-.36,1.46-1.09.65-.73,1.29-1.63,1.93-2.72l1.22-2.1c.39.04.64.05.74.05.25,0,.46-.02.62-.05l-2.27,3.68c-.5.82-.75,1.39-.75,1.7,0,.36.18.53.55.53.74,0,1.64-.78,2.7-2.34-.04-.27-.07-.47-.07-.6,0-.65.2-1.32.6-2.01s.79-1.04,1.17-1.04c.17,0,.25.11.25.34,0,.61-.59,1.72-1.78,3.34.18.33.42.49.72.49.54,0,1.21-.49,2.01-1.47.15-.17.24-.26.29-.26.02,0,.04.01.04.04Z" fill="#e2b75d"/><path d="m215.03,205.85c0,.15-.53.86-1.58,2.11-.86,1.03-1.54,1.55-2.04,1.55-.33,0-.6-.13-.82-.38s-.33-.57-.33-.94c0-.33.07-.63.2-.91.13-.28.48-.83,1.05-1.66.59-.87.88-1.43.88-1.66,0-.3-.16-.45-.47-.45-1.06,0-2.69,1.97-4.9,5.9-.36-.03-.57-.04-.64-.04-.25,0-.49.01-.72.04l1.7-2.69c.96-1.54,1.45-2.5,1.45-2.88,0-.22-.09-.33-.27-.33-.37,0-1.1.78-2.19,2.34-.07.09-.12.15-.15.15-.04,0-.06-.02-.07-.07,0-.04.02-.07.04-.09l.21-.27c1.11-1.49,1.86-2.24,2.24-2.24.25,0,.46.11.63.34.17.22.26.49.26.81,0,.46-.27,1.11-.82,1.94.86-1.18,1.51-1.99,1.97-2.43.46-.44.89-.65,1.28-.65.32,0,.59.13.81.39s.33.58.33.97c0,.49-.33,1.23-1,2.23s-1.02,1.68-1.02,1.96c0,.3.15.45.45.45.65,0,1.76-1.15,3.34-3.45.04-.07.07-.11.11-.11.04,0,.07.02.07.07Z" fill="#e2b75d"/><path d="m220.51,205.86s-.07.12-.2.28l-.47.59c-1.5,1.85-2.79,2.78-3.87,2.78-.51,0-.93-.18-1.28-.55-.34-.37-.52-.82-.52-1.38,0-1.31.91-2.46,2.73-3.45.96-.52,1.74-.78,2.34-.78.26,0,.48.08.67.23s.28.35.28.57c0,.52-.34.97-1.02,1.33-.68.37-1.82.71-3.42,1.03-.49.75-.74,1.37-.74,1.87,0,.62.34.94,1.01.94,1.15,0,2.55-1.12,4.21-3.36.09-.12.16-.17.22-.17.03,0,.04.03.04.07Zm-.92-2.02c0-.23-.13-.35-.38-.35-.38,0-.89.27-1.52.8-.63.53-1.24,1.22-1.84,2.07,1.04-.27,1.93-.65,2.65-1.14.73-.49,1.09-.95,1.09-1.39Z" fill="#e2b75d"/><path d="m230.38,198.25c-2.72,4.32-4.44,7.09-5.15,8.29-.72,1.23-1.08,2-1.08,2.32s.15.49.45.49c.66,0,1.78-1.15,3.37-3.45.04-.07.08-.11.12-.11.04,0,.07.02.07.07,0,.02-.04.08-.11.17l-.47.64c-1.37,1.9-2.39,2.84-3.04,2.84-.33,0-.61-.13-.82-.38-.21-.25-.32-.57-.32-.96s.13-.84.39-1.36c-1.27,1.8-2.21,2.7-2.83,2.7-.38,0-.71-.16-.97-.49s-.39-.75-.39-1.25c0-1.2.74-2.28,2.23-3.25,1.18-.78,2.11-1.16,2.79-1.16.45,0,.67.22.67.65,0,.2-.06.43-.18.69l3.88-6.51c.24.07.47.11.71.11.06,0,.28-.01.67-.04Zm-5.24,5.84c0-.38-.18-.58-.53-.58-.65,0-1.51.65-2.58,1.95-1.07,1.3-1.6,2.35-1.6,3.15,0,.49.2.73.6.73.58,0,1.58-1.01,2.99-3.02.75-1.09,1.13-1.83,1.13-2.23Z" fill="#e2b75d"/><path d="m257.16,197.94c0,.38-.05.79-.15,1.24-.1.45-.2.67-.29.67-.07,0-.11-.04-.11-.11,0-.02,0-.05.02-.1.19-.51.29-1.05.29-1.64,0-.91-.27-1.65-.82-2.2s-1.26-.83-2.15-.83c-1.2,0-2.44.4-3.72,1.19,1.09.87,1.63,1.86,1.63,2.96,0,.93-.37,1.74-1.12,2.43s-1.62,1.03-2.62,1.03c-.39,0-.81-.08-1.26-.24-.45-.16-.67-.3-.67-.44.01-.04.04-.07.09-.07.04,0,.09.02.17.07.45.26.9.39,1.36.39.83,0,1.53-.36,2.12-1.07.59-.71.89-1.56.89-2.55,0-.85-.3-1.61-.91-2.27-1.57,1.17-3.07,3.24-4.48,6.2-.86,1.79-1.64,3.08-2.35,3.87-.71.79-1.71,1.5-2.99,2.14-1.52.74-2.87,1.11-4.06,1.11-.97,0-1.78-.22-2.43-.67-.65-.45-.97-1-.97-1.67,0-.37.11-.69.33-.96.22-.27.48-.4.79-.4.44,0,.66.25.66.74,0,.25-.07.46-.22.63-.15.17-.33.26-.55.26-.38,0-.56-.2-.54-.59,0-.16,0-.24-.04-.24-.12,0-.17.19-.17.58,0,.6.3,1.1.89,1.5.59.4,1.34.6,2.24.6,1.59,0,3.03-.59,4.32-1.76.57-.51,1.05-1.04,1.45-1.58.44-.58,1.39-1.99,2.85-4.22.73-1.1,1.6-2.21,2.59-3.32.99-1.11,1.84-1.9,2.53-2.38-1.13-.96-2.79-1.45-4.98-1.45-3.06,0-5.72,1.11-7.99,3.32-1.86,1.81-2.79,3.52-2.79,5.12,0,.81.26,1.46.78,1.94s1.23.72,2.12.72c1.46,0,2.96-.7,4.52-2.1s2.33-2.76,2.33-4.08c0-1.05-.54-1.58-1.62-1.58s-2.24.6-3.48,1.81c-1.24,1.21-1.85,2.34-1.85,3.4,0,.26.09.49.26.67.17.19.38.28.61.28.12,0,.19.03.19.1,0,.06-.07.09-.21.09-.35,0-.64-.16-.88-.47-.24-.32-.36-.7-.36-1.16,0-1.13.62-2.23,1.86-3.3s2.51-1.61,3.82-1.61,1.87.58,1.87,1.73c0,1.41-.79,2.83-2.38,4.26s-3.15,2.15-4.7,2.15c-1.01,0-1.82-.3-2.42-.91-.61-.61-.91-1.42-.91-2.43,0-2.05,1.16-3.93,3.48-5.62,2.32-1.69,4.88-2.54,7.69-2.54,2.13,0,3.92.48,5.37,1.43,1.33-.83,2.61-1.24,3.85-1.24.97,0,1.75.29,2.34.87.59.58.89,1.34.89,2.29Z" fill="#e2b75d"/><path d="m255.45,205.85c0,.06-.22.32-.65.8-.55.61-1.07.92-1.56.92-.55,0-.83-.32-.83-.96,0-.2.04-.46.13-.77-.46.4-.83.79-1.12,1.19-.29.39-.78,1.19-1.48,2.39-.38-.03-.61-.04-.67-.04-.03,0-.25.01-.66.04l1.78-2.89c.89-1.45,1.34-2.35,1.34-2.7,0-.2-.08-.3-.25-.3-.41,0-1.14.78-2.21,2.34-.07.1-.12.15-.17.15-.03,0-.04-.03-.04-.07,0-.04.02-.07.04-.09l.2-.27c1.12-1.49,1.88-2.24,2.28-2.24.58,0,.87.37.87,1.12,0,.56-.3,1.3-.89,2.22.38-.44.74-.79,1.08-1.07.28-.65.62-1.19,1.03-1.62.41-.44.78-.65,1.1-.65.22,0,.34.1.34.29,0,.35-.5.84-1.51,1.49-.16.1-.4.25-.72.45l-.13.11c-.1.33-.15.61-.15.83,0,.61.23.91.69.91.57,0,1.18-.47,1.85-1.41.15-.16.24-.24.27-.24.04,0,.07.02.07.07Z" fill="#e2b75d"/><path d="m261.88,205.83c0,.12-.21.39-.64.81-.64.64-1.23.95-1.76.95-.23,0-.42-.04-.6-.13-.96,1.36-1.86,2.03-2.7,2.03-.44,0-.81-.18-1.12-.54-.31-.36-.46-.79-.46-1.29,0-1.12.73-2.19,2.2-3.23,1.03-.73,1.88-1.1,2.55-1.1.62,0,.94.33.94,1,0,.83-.44,1.84-1.32,3.01.15.09.31.13.49.13.33,0,.71-.15,1.14-.46.44-.3.79-.67,1.07-1.1.08-.1.14-.15.17-.15.03,0,.04.01.04.04Zm-1.77-1.46c0-.59-.26-.88-.79-.88-.66,0-1.47.63-2.42,1.89-.95,1.26-1.43,2.32-1.43,3.19,0,.5.24.75.72.75.78,0,1.64-.65,2.57-1.94-.21-.23-.32-.47-.32-.72,0-.36.14-.72.42-1.1s.56-.57.83-.57c.12,0,.2.07.24.22.12-.25.17-.54.17-.85Z" fill="#e2b75d"/><path d="m265.28,205.83c0,.11-.4.61-1.21,1.51-.83.93-1.96,1.79-3.39,2.6l-.55.97c-1.12,1.92-2.23,3.33-3.33,4.23-1.16.95-2.15,1.43-2.98,1.43-.74,0-1.11-.34-1.11-1.02,0-.83.56-1.69,1.69-2.57.62-.48,1.14-.84,1.57-1.09.66-.38,1.68-.86,3.05-1.45l.15-.08,1.9-3.38c.53-.92,1.21-2.1,2.05-3.55.2.05.37.08.51.08.2,0,.47-.03.81-.08-.58.94-1.46,2.43-2.63,4.46l-1,1.83c.93-.52,1.7-1.04,2.29-1.56.59-.52,1.23-1.24,1.92-2.15.09-.14.16-.22.23-.22.03,0,.05.01.05.04Zm-6.21,4.74c-2.07,1.05-3.38,1.77-3.94,2.15-1.52,1.04-2.27,2-2.27,2.86,0,.23.09.43.26.58s.39.23.65.23c.76,0,1.52-.42,2.26-1.27.63-.71,1.6-2.16,2.9-4.34l.13-.22Zm6.51-9.2c0,.25-.11.48-.32.69-.21.21-.45.32-.7.32-.3,0-.45-.16-.45-.47,0-.23.11-.46.32-.67.21-.22.44-.33.68-.33.31,0,.47.16.47.47Z" fill="#e2b75d"/><path d="m270.75,205.86s-.07.12-.2.28l-.47.59c-1.5,1.85-2.79,2.78-3.87,2.78-.51,0-.93-.18-1.28-.55-.34-.37-.52-.82-.52-1.38,0-1.31.91-2.46,2.73-3.45.96-.52,1.74-.78,2.34-.78.26,0,.48.08.67.23s.28.35.28.57c0,.52-.34.97-1.02,1.33-.68.37-1.82.71-3.42,1.03-.49.75-.74,1.37-.74,1.87,0,.62.34.94,1.01.94,1.15,0,2.55-1.12,4.21-3.36.09-.12.16-.17.22-.17.03,0,.04.03.04.07Zm-.92-2.02c0-.23-.13-.35-.38-.35-.38,0-.89.27-1.52.8-.63.53-1.24,1.22-1.84,2.07,1.04-.27,1.93-.65,2.65-1.14.73-.49,1.09-.95,1.09-1.39Z" fill="#e2b75d"/><path d="m276.15,205.85c0,.09-.51.7-1.54,1.83-1.12,1.22-2.07,1.83-2.85,1.83-.51,0-.94-.19-1.31-.58-.36-.39-.54-.85-.54-1.39,0-.61.25-1.24.74-1.89.49-.65,1.16-1.21,1.99-1.69.7-.41,1.28-.61,1.72-.61.54,0,.81.32.81.96,0,.5-.17,1-.51,1.5s-.67.75-1.01.75-.49-.16-.49-.49c0-.38.33-.74,1-1.07.51-.25.77-.59.77-1,0-.33-.18-.49-.53-.49-.6,0-1.34.6-2.22,1.8-.88,1.2-1.32,2.2-1.32,3.01,0,.68.32,1.02.96,1.02,1,0,2.36-1.13,4.07-3.39.09-.12.16-.17.21-.17.03,0,.04.03.04.07Z" fill="#e2b75d"/><path d="m280.15,203.35l-.09.16h-1.43l-2.43,4.14c-.3.5-.45.9-.45,1.2,0,.33.17.49.51.49.66,0,1.78-1.15,3.34-3.45.05-.07.09-.11.13-.11.04,0,.07.02.07.07,0,.02-.04.08-.11.17l-.47.64c-1.37,1.9-2.39,2.84-3.08,2.84-.34,0-.63-.12-.85-.37s-.34-.55-.34-.92c0-.44.19-.98.58-1.63l1.83-3.07h-1.11l.11-.16h1.09l1.27-2.11c.22.06.42.09.62.09s.41-.03.63-.09l-1.25,2.11h1.43Z" fill="#e2b75d"/><path d="m195.08,221.11h3.23v.57h-2.6v1.41h2.29v.56h-2.29v2.12h-.63v-4.66Z" fill="#e2b75d"/><path d="m202.83,221.78c.31.41.46.94.46,1.58,0,.7-.18,1.27-.53,1.74-.41.54-1.01.81-1.77.81-.72,0-1.28-.24-1.69-.71-.37-.46-.55-1.03-.55-1.73,0-.63.16-1.17.47-1.62.4-.58,1-.86,1.78-.86s1.43.26,1.83.79Zm-.56,2.97c.25-.4.37-.86.37-1.38,0-.55-.14-.99-.43-1.32s-.68-.5-1.18-.5-.88.17-1.18.5c-.3.33-.46.82-.46,1.46,0,.52.13.95.39,1.31.26.35.68.53,1.27.53s.96-.2,1.21-.6Z" fill="#e2b75d"/><path d="m207.89,221.78c.31.41.46.94.46,1.58,0,.7-.18,1.27-.53,1.74-.41.54-1.01.81-1.77.81-.72,0-1.28-.24-1.69-.71-.37-.46-.55-1.03-.55-1.73,0-.63.16-1.17.47-1.62.4-.58,1-.86,1.78-.86s1.43.26,1.83.79Zm-.56,2.97c.25-.4.37-.86.37-1.38,0-.55-.14-.99-.43-1.32s-.68-.5-1.18-.5-.88.17-1.18.5c-.3.33-.46.82-.46,1.46,0,.52.13.95.39,1.31.26.35.68.53,1.27.53s.96-.2,1.21-.6Z" fill="#e2b75d"/><path d="m212.49,221.11v.56h-1.57v4.11h-.64v-4.11h-1.57v-.56h3.78Z" fill="#e2b75d"/><path d="m213.06,221.11h2c.55,0,.93.16,1.16.49.14.19.2.41.2.67,0,.29-.08.54-.25.72-.09.1-.21.19-.37.27.24.09.42.19.54.31.21.2.31.48.31.84,0,.3-.09.57-.28.82-.28.36-.73.55-1.34.55h-1.97v-4.66Zm1.77,1.97c.27,0,.47-.04.62-.11.23-.12.35-.33.35-.63s-.12-.51-.37-.62c-.14-.06-.35-.09-.62-.09h-1.13v1.44h1.15Zm.21,2.15c.39,0,.66-.11.83-.34.1-.14.16-.31.16-.51,0-.34-.15-.57-.45-.69-.16-.07-.37-.1-.64-.1h-1.25v1.64h1.36Z" fill="#e2b75d"/><path d="m218.76,221.11h.71l1.69,4.66h-.69l-.47-1.4h-1.84l-.5,1.4h-.65l1.75-4.66Zm1.04,2.75l-.71-2.06-.75,2.06h1.46Z" fill="#e2b75d"/><path d="m221.74,221.11h.63v4.11h2.36v.56h-2.99v-4.66Z" fill="#e2b75d"/><path d="m225.35,221.11h.63v4.11h2.36v.56h-2.99v-4.66Z" fill="#e2b75d"/><path d="m233.87,221.45c.33.31.51.66.54,1.06h-.62c-.07-.3-.21-.54-.42-.71-.21-.18-.5-.26-.88-.26-.46,0-.83.16-1.11.48-.28.32-.42.82-.42,1.48,0,.55.13.99.38,1.33.25.34.64.51,1.14.51.47,0,.82-.18,1.06-.54.13-.19.23-.44.29-.74h.62c-.05.49-.24.9-.55,1.23-.37.4-.87.6-1.5.6-.54,0-1-.16-1.36-.49-.48-.43-.73-1.1-.73-2.01,0-.69.18-1.25.55-1.69.39-.48.94-.72,1.63-.72.59,0,1.05.16,1.37.47Z" fill="#e2b75d"/><path d="m235.23,221.11h.63v4.11h2.36v.56h-2.99v-4.66Z" fill="#e2b75d"/><path d="m239.53,221.11v2.88c0,.34.06.62.19.84.19.34.51.51.95.51.54,0,.9-.18,1.09-.55.1-.2.16-.47.16-.8v-2.88h.64v2.62c0,.57-.08,1.01-.23,1.32-.28.56-.82.84-1.61.84s-1.32-.28-1.6-.84c-.15-.31-.23-.75-.23-1.32v-2.62h.64Z" fill="#e2b75d"/><path d="m243.52,221.11h2c.55,0,.93.16,1.16.49.14.19.2.41.2.67,0,.29-.08.54-.25.72-.09.1-.21.19-.37.27.24.09.42.19.54.31.21.2.31.48.31.84,0,.3-.09.57-.28.82-.28.36-.73.55-1.34.55h-1.97v-4.66Zm1.77,1.97c.27,0,.47-.04.62-.11.23-.12.35-.33.35-.63s-.12-.51-.37-.62c-.14-.06-.35-.09-.62-.09h-1.13v1.44h1.15Zm.21,2.15c.39,0,.66-.11.83-.34.1-.14.16-.31.16-.51,0-.34-.15-.57-.45-.69-.16-.07-.37-.1-.64-.1h-1.25v1.64h1.36Z" fill="#e2b75d"/><path d="m270.16,74.6h-97.22c2.57-9.15,6.34-17.55,11.18-24.79,9.94-14.85,23.23-23.03,37.43-23.03s27.49,8.18,37.43,23.03c4.84,7.23,8.61,15.64,11.18,24.79Z" fill="#fff"/><path d="m241.36,77.54v98.95c-1.18.71-2.39,1.35-3.61,1.93h-6.3v-100.88h9.9Z" fill="#fff"/><path d="m251.26,77.54v91.1c-3.11,3.15-6.43,5.78-9.9,7.85v-98.95h9.9Z"/><path d="m261.16,77.54v78.11c-.7,1.18-1.43,2.33-2.18,3.46-2.39,3.57-4.98,6.76-7.72,9.54v-91.1h9.9Z" fill="#fff"/><path d="m271.06,77.54v53.32c-2.2,9.04-5.54,17.43-9.9,24.78v-78.11h9.9Z"/><rect x="221.55" y="77.54" width="9.9" height="100.88"/><path d="m221.55,77.54v100.88h-16.2c-7.94-3.76-15.2-10.31-21.23-19.32-9.79-14.62-15.18-34.03-15.18-54.64,0-9.33,1.1-18.42,3.22-26.92h49.39Z" fill="#04652b"/><path d="m271.06,78.06c-.04-.17-.08-.35-.13-.52-.24-.99-.5-1.96-.78-2.93-2.57-9.15-6.34-17.55-11.18-24.79-9.94-14.85-23.23-23.03-37.43-23.03s-27.49,8.18-37.43,23.03c-4.84,7.23-8.61,15.64-11.18,24.79-.27.97-.53,1.95-.78,2.93-2.12,8.51-3.22,17.59-3.22,26.92,0,20.62,5.39,40.02,15.18,54.64,6.02,9,13.28,15.55,21.23,19.32,5.16,2.44,10.61,3.71,16.2,3.71s11.04-1.27,16.2-3.71c1.22-.58,2.42-1.22,3.61-1.93,3.48-2.07,6.79-4.7,9.9-7.85,2.74-2.78,5.33-5.96,7.72-9.54.75-1.13,1.48-2.28,2.18-3.46,4.37-7.36,7.7-15.74,9.9-24.78,2.03-8.36,3.09-17.26,3.09-26.4s-1.06-18.05-3.09-26.4Zm-49.51-47.56c19.94,0,37.12,18.15,44.72,44.1h-89.45c7.6-25.95,24.79-44.1,44.72-44.1Zm39.61,117.27c-2.79,5.83-6.13,11.02-9.9,15.39-3.04,3.53-6.36,6.53-9.9,8.91-3.14,2.11-6.46,3.74-9.9,4.82-3.2,1-6.51,1.52-9.9,1.52-26.96,0-48.89-33.18-48.89-73.96,0-9.49,1.19-18.58,3.35-26.92h91.08c2.16,8.35,3.35,17.43,3.35,26.92,0,16.17-3.44,31.13-9.28,43.31Z" fill="#e2b75d" stroke="#000" stroke-miterlimit="10" stroke-width=".5"/><path d="m193.36,95.48s1.92.72,2.16.48,1.22-.22,1.22-.22l.7.46.96.48s.24,1.44.48,1.68l.72.72s.24.24,0,.96-.72,2.64-.72,2.64c0,0-.48,1.2-.24,1.68s.48,1.2.48,1.2l-1.2,3.6s0,.48.24.48h1.24s.42.33.31,1.25.61,1.63.61,1.63l3.36,3.84s1.92.48,2.16.96,1.68,1.68,1.68,1.68l1.68.72.48.24s.96-.96,1.2-.96,1.2.72,1.2.72l1.92,1.44,1.44-.24s.48.24,0,1.2-1.44,3.36-1.44,3.36l-.96,2.16v2.16l.24,2.64,1.2,1.2-.24.72-1.92,1.44s-.72.72-.48,2.4.96,2.4.96,2.4c0,0,.72,1.2.72,1.92v2.4s-.24,1.2.96,1.68,1.2.72,1.2.72l.24.72.48.96s.72,1.44-.48.96-1.92-.48-1.92-.48l-1.44.96-1.44-1.44s-.48-.72-1.2-.72-1.44-1.2-1.44-1.2l-.96-2.16-3.12-3.36s1.2-.48.48-1.2l-.96-.96s-.96-.24-1.2.48c-.96.48-1.2.72-1.2.72,0,0-.24,1.44-1.2-.24s-.72-1.44-.72-1.44l.72-.72-.48-.72.72-1.68s2.64.48,2.88.24,1.92-.48,1.92-.48c0,0,.72,0,.48-.48s-.96-2.16-.96-2.16c0,0-1.44-.96-1.68-1.92s0-1.2,0-1.2c0,0,1.2-.48,0-1.44s-1.68-.24-1.68-.24c0,0-.72.24-1.2-1.44-1.92-1.44-2.88-2.4-2.88-2.4,0,0,.48-2.88-1.68-2.88s-2.16,1.44-4.8-.96-3.84-3.36-3.84-3.36c0,0-.96.48-1.2.96s-.72-.24-.72-.24l-1.2-.96,1.2-.48s-.48-1.92-2.4-1.68-2.4.72-2.4.72l-1.44-.72-1.2-.48.72-.96,1.92.72s1.2-.96-.96-2.64c2.16-1.44,3.12-1.44,3.12-1.44,0,0,1.44-2.64,4.8-1.68s4.08-2.4,4.08-2.4c0,0,1.44-5.04,1.92-10.32Z" fill="#e2b75d"/><path d="m189.43,66.4c0-1.39,0-2.43,0-3.47,0-1.04,0-2.08,0-3.47.22-.68.33-1.02.57-1.68.08,1.56.13,2.74.19,3.91.06,1.17.12,2.34.19,3.91.13,2.63.44,3.33,2.5,3.11,1.02-.11,1.58-.42,1.82-1.23s.14-2.13-.12-4.12c-.2-1.58-.37-2.9-.53-4.12s-.31-2.37-.47-3.6c-.16-1.23-.33-2.54-.53-4.12.34-.56.52-.83.89-1.36.24,1.74.43,3.2.61,4.55.18,1.36.35,2.62.54,3.97.18,1.36.38,2.81.61,4.55.32,2.35.4,4.09.02,5.19-.38,1.1-1.22,1.53-2.7,1.53s-2.41-.35-2.94-.93c-.52-.57-.65-1.39-.65-2.64Z"/><path d="m195.75,47.77c.44-.52.66-.78,1.12-1.27.69,1.42,1.31,2.78,1.9,4.1s1.14,2.63,1.69,3.99c.55,1.36,1.11,2.77,1.72,4.37.61,1.6,1.26,3.39,2.01,5.53-.21-1.77-.4-3.36-.58-4.85-.18-1.49-.34-2.87-.5-4.21s-.32-2.66-.48-4c-.16-1.35-.32-2.73-.5-4.21s-.37-3.08-.58-4.85c.49-.35.73-.52,1.23-.85.21,1.88.41,3.6.59,5.22.18,1.62.35,3.13.52,4.59s.32,2.87.48,4.28c.16,1.41.32,2.82.48,4.28.17,1.46.34,2.97.52,4.59.18,1.62.38,3.34.59,5.22-.5,0-.75,0-1.25,0-.6-1.79-1.13-3.34-1.64-4.74-.5-1.41-.97-2.67-1.42-3.87-.45-1.2-.89-2.32-1.34-3.44-.45-1.12-.91-2.23-1.39-3.36-.49-1.14-1-2.31-1.56-3.52.26,1.9.49,3.56.7,5.1s.41,2.97.6,4.39c.19,1.42.39,2.85.6,4.39s.44,3.2.7,5.1c-.47,0-.7,0-1.17.01-.24-1.76-.46-3.34-.66-4.82s-.39-2.85-.58-4.18c-.18-1.34-.36-2.64-.55-3.97-.18-1.34-.37-2.71-.58-4.18-.2-1.48-.42-3.06-.66-4.82Z"/><path d="m206.53,55c-.31-3.11-.53-5.62-.61-7.68-.09-2.06-.05-3.66.13-4.94.19-1.27.52-2.22,1.03-2.94s1.2-1.21,2.09-1.55c.89-.34,1.64-.4,2.25-.08.61.32,1.09,1.01,1.48,2.16.38,1.16.67,2.78.91,4.98.23,2.2.41,4.97.58,8.42.17,3.35.26,6.07.26,8.26,0,2.19-.09,3.85-.29,5.08s-.51,2.05-.96,2.55-1.03.69-1.77.69-1.35-.19-1.87-.66-.95-1.21-1.32-2.33c-.38-1.11-.7-2.6-1-4.56-.31-1.96-.59-4.4-.9-7.42Zm6.5-1.43c-.18-3.04-.34-5.43-.52-7.29-.18-1.86-.38-3.2-.63-4.13-.26-.93-.57-1.45-.98-1.69-.41-.24-.91-.19-1.53.03-.62.22-1.09.52-1.43,1.01-.34.49-.56,1.17-.66,2.18-.1,1-.1,2.33,0,4.11s.29,4.02.55,6.86c.34,3.67.62,6.31.92,8.21s.62,3.05,1.03,3.72c.42.67.94.87,1.65.84.71-.03,1.2-.26,1.51-.99.31-.74.45-1.99.45-4.03,0-2.05-.13-4.89-.36-8.82Z"/><path d="m214.54,36.71c.59-.12.89-.17,1.48-.27.28,1.88.54,3.61.77,5.24.23,1.63.44,3.16.64,4.64s.39,2.91.57,4.34c.18,1.43.36,2.87.55,4.36s.37,3.04.56,4.7c.19,1.66.39,3.43.6,5.36.13-1.94.26-3.71.38-5.38s.25-3.23.37-4.74c.12-1.51.24-2.96.37-4.42.13-1.45.25-2.91.39-4.42s.29-3.07.45-4.74c.16-1.67.34-3.44.54-5.38.58.01.87.02,1.45.06.17,1.95.32,3.73.45,5.4s.25,3.24.37,4.75.22,2.97.32,4.42.2,2.91.29,4.41c.1,1.5.19,3.06.29,4.72.1,1.66.19,3.43.29,5.35.24-1.91.47-3.66.68-5.3.22-1.64.43-3.16.63-4.63.21-1.47.41-2.88.62-4.29s.42-2.81.64-4.26c.22-1.45.46-2.95.72-4.54.26-1.59.53-3.28.85-5.11.59.14.89.22,1.48.39-.33,1.78-.63,3.45-.91,5.03-.28,1.58-.54,3.08-.78,4.53-.24,1.45-.48,2.85-.7,4.24-.22,1.39-.44,2.76-.66,4.16-.22,1.4-.43,2.82-.65,4.31-.22,1.49-.44,3.04-.67,4.69-.23,1.65-.47,3.4-.72,5.3-.54,0-.8,0-1.34,0-.1-1.81-.2-3.47-.29-5.03-.1-1.56-.19-3.03-.28-4.44-.09-1.42-.19-2.78-.29-4.15-.1-1.37-.2-2.73-.31-4.15-.11-1.42-.23-2.89-.36-4.46-.13-1.57-.27-3.25-.44-5.07-.2,1.81-.37,3.48-.53,5.05-.16,1.57-.3,3.03-.44,4.45-.13,1.42-.26,2.78-.38,4.15-.12,1.37-.24,2.73-.36,4.15-.12,1.42-.24,2.89-.36,4.46-.12,1.57-.25,3.24-.38,5.06-.53,0-.79,0-1.32,0-.22-1.91-.43-3.69-.63-5.36-.2-1.67-.4-3.25-.59-4.76s-.39-2.96-.58-4.39c-.19-1.43-.39-2.83-.59-4.25-.2-1.42-.41-2.85-.63-4.34-.22-1.49-.46-3.03-.71-4.65s-.53-3.34-.84-5.18Z"/><path d="m232.93,37.89c.61.21.91.32,1.51.56.24,1.83.45,3.5.64,5.05.19,1.55.36,2.99.52,4.36.16,1.37.31,2.68.45,3.98.14,1.3.28,2.58.42,3.89s.27,2.66.42,4.07c.14,1.41.29,2.89.44,4.48.2-1.85.39-3.51.56-5.06s.33-2.99.48-4.39.31-2.77.46-4.17.31-2.84.48-4.39c.17-1.55.35-3.21.56-5.06.5.32.75.48,1.25.83-.22,1.84-.41,3.53-.6,5.12-.19,1.59-.36,3.07-.53,4.51-.17,1.43-.33,2.82-.49,4.2-.16,1.38-.32,2.77-.49,4.2-.17,1.43-.34,2.92-.53,4.51-.19,1.59-.38,3.28-.6,5.12-.5,0-.75,0-1.25,0-.15-1.56-.29-3.03-.42-4.43-.13-1.4-.27-2.73-.4-4.03s-.26-2.58-.4-3.86c-.14-1.29-.28-2.59-.43-3.96-.15-1.37-.31-2.79-.49-4.34-.18-1.54-.38-3.2-.61-5.03-.13,1.71-.26,3.27-.37,4.75-.12,1.47-.22,2.85-.33,4.18-.1,1.33-.21,2.61-.31,3.89s-.2,2.56-.31,3.89c-.1,1.33-.21,2.7-.33,4.18s-.24,3.04-.37,4.75c-.47,0-.7,0-1.17,0,.13-1.81.25-3.5.36-5.09.11-1.59.22-3.09.32-4.54.1-1.44.2-2.83.3-4.2.1-1.37.19-2.72.29-4.09.1-1.37.19-2.76.3-4.2.1-1.44.21-2.94.32-4.54s.23-3.28.36-5.09Z"/><path d="m243.39,43.77c.93.78,1.6,1.41,2.24,2.07.65.66,1.28,1.34,2.07,2.32-.1.7-.15,1.05-.24,1.76-1.2-1.34-1.84-1.96-3.18-3.1-.23,1.77-.41,3.09-.58,4.42-.17,1.33-.35,2.65-.58,4.42.91.47,1.35.72,2.22,1.24l-.25,1.85c-.88-.45-1.32-.66-2.24-1.07-.18,1.33-.32,2.45-.46,3.48s-.26,2-.4,3.04-.28,2.15-.46,3.48c1.59.13,2.37.2,3.94.35-.09.69-.14,1.03-.24,1.72-1.03-.01-1.8-.02-2.57-.03-.77,0-1.54-.01-2.57-.02.22-1.73.42-3.31.61-4.8s.37-2.88.54-4.23c.17-1.34.34-2.64.5-3.94s.33-2.59.5-3.94c.17-1.34.35-2.74.54-4.23s.39-3.07.61-4.8Z"/><path d="m249.35,50.39c1.06,1.56,1.54,2.39,2.4,4.17.62,1.28,1,2.46,1.27,3.53.27,1.08.42,2.06.53,3.09.1,1.03.15,2.13.15,3.51,0,2.03-.12,3.22-.64,3.99-.52.77-1.44,1.14-2.9,1.12-1.36-.02-2.04-.03-3.4-.04.26-1.94.49-3.63.7-5.21s.41-3.03.6-4.48.39-2.91.6-4.48c.21-1.57.44-3.27.7-5.21Zm.92,18.15c1.01.12,1.6-.02,1.96-.69.36-.67.48-1.87.58-4.01.11-2.21.12-3.53-.03-4.67-.16-1.14-.47-2.12-1.17-3.39-.59-1.06-.9-1.57-1.57-2.55-.19,1.51-.36,2.82-.52,4.05-.16,1.22-.3,2.35-.45,3.48-.14,1.13-.29,2.26-.45,3.48-.16,1.22-.33,2.54-.52,4.05.87.1,1.3.15,2.16.26Z"/><path d="m221.09,17.16c.18-.13.48-.13.66,0l4.9,3.58c.18.13.27.07.2-.15l-1.89-5.77c-.07-.22.02-.5.2-.63l4.92-3.55c.18-.13.15-.24-.08-.24h-6.07c-.23.01-.47-.16-.54-.38l-1.86-5.77c-.07-.22-.18-.22-.25,0l-1.86,5.77c-.07.22-.31.39-.54.39h-6.07c-.23-.01-.26.09-.08.23l4.92,3.55c.18.13.28.42.2.63l-1.89,5.77c-.07.22.02.28.2.15l4.9-3.58Z" fill="#e2b75d" stroke="#000" stroke-miterlimit="10" stroke-width=".5"/></svg>